<svg width="1134" viewBox="0 -6 1134 705" xmlns="http://www.w3.org/2000/svg">
  <line stroke-linecap="round" x1="963.9" y1="327.6" x2="1020.6" y2="365.4" stroke="#224" stroke-width="9"></line>
  <line stroke-linecap="round" x1="997.7566102200509" y1="362.7205330079815" x2="1020.6" y2="365.4" stroke="#224" stroke-width="9"></line>
  <line stroke-linecap="round" x1="1009.340726707387" y1="345.34435827697723" x2="1020.6" y2="365.4" stroke="#224" stroke-width="9"></line>
  <line stroke-linecap="round" x1="926.1" y1="327.6" x2="869.4" y2="365.4" stroke="#224" stroke-width="9"></line>
  <line stroke-linecap="round" x1="880.6592732926131" y1="345.34435827697723" x2="869.4" y2="365.4" stroke="#224" stroke-width="9"></line>
  <line stroke-linecap="round" x1="892.2433897799492" y1="362.7205330079815" x2="869.4" y2="365.4" stroke="#224" stroke-width="9"></line>
  <line stroke-linecap="round" x1="642.6" y1="138.6" x2="869.4" y2="176.4" stroke="#224" stroke-width="9"></line>
  <line stroke-linecap="round" x1="847.4690630009743" y1="183.33065670371622" x2="869.4" y2="176.4" stroke="#224" stroke-width="9"></line>
  <line stroke-linecap="round" x1="850.9022996075323" y1="162.7312370643683" x2="869.4" y2="176.4" stroke="#224" stroke-width="9"></line>
  <line stroke-linecap="round" x1="585.9" y1="327.6" x2="642.6" y2="365.4" stroke="#224" stroke-width="9"></line>
  <line stroke-linecap="round" x1="619.7566102200509" y1="362.7205330079815" x2="642.6" y2="365.4" stroke="#224" stroke-width="9"></line>
  <line stroke-linecap="round" x1="631.340726707387" y1="345.34435827697723" x2="642.6" y2="365.4" stroke="#224" stroke-width="9"></line>
  <line stroke-linecap="round" x1="548.1" y1="327.6" x2="491.4" y2="365.4" stroke="#224" stroke-width="9"></line>
  <line stroke-linecap="round" x1="502.6592732926129" y1="345.34435827697723" x2="491.4" y2="365.4" stroke="#224" stroke-width="9"></line>
  <line stroke-linecap="round" x1="514.2433897799491" y1="362.7205330079815" x2="491.4" y2="365.4" stroke="#224" stroke-width="9"></line>
  <line stroke-linecap="round" x1="567" y1="138.6" x2="567" y2="176.4" stroke="#224" stroke-width="9"></line>
  <line stroke-linecap="round" x1="556.5582185059905" y1="155.90684994366757" x2="567" y2="176.4" stroke="#224" stroke-width="9"></line>
  <line stroke-linecap="round" x1="577.4417814940095" y1="155.90684994366757" x2="567" y2="176.4" stroke="#224" stroke-width="9"></line>
  <line stroke-linecap="round" x1="207.9" y1="327.6" x2="264.6" y2="365.4" stroke="#224" stroke-width="9"></line>
  <line stroke-linecap="round" x1="241.75661022005093" y1="362.7205330079815" x2="264.6" y2="365.4" stroke="#224" stroke-width="9"></line>
  <line stroke-linecap="round" x1="253.3407267073871" y1="345.34435827697723" x2="264.6" y2="365.4" stroke="#224" stroke-width="9"></line>
  <line stroke-linecap="round" x1="170.1" y1="327.6" x2="113.4" y2="365.4" stroke="#224" stroke-width="9"></line>
  <line stroke-linecap="round" x1="124.65927329261294" y1="345.34435827697723" x2="113.4" y2="365.4" stroke="#224" stroke-width="9"></line>
  <line stroke-linecap="round" x1="136.2433897799491" y1="362.7205330079815" x2="113.4" y2="365.4" stroke="#224" stroke-width="9"></line>
  <line stroke-linecap="round" x1="491.4" y1="138.6" x2="264.6" y2="176.4" stroke="#224" stroke-width="9"></line>
  <line stroke-linecap="round" x1="283.09770039246774" y1="162.7312370643683" x2="264.6" y2="176.4" stroke="#224" stroke-width="9"></line>
  <line stroke-linecap="round" x1="286.5309369990257" y1="183.33065670371622" x2="264.6" y2="176.4" stroke="#224" stroke-width="9"></line>
  <line x1="545.5" x2="545.5" y1="3" y2="123" stroke="#224" stroke-width="3.6" stroke-linecap="round"></line>
  <line x1="588.5" x2="588.5" y1="3" y2="123" stroke="#224" stroke-width="3.6" stroke-linecap="round"></line>
  <line x1="507" x2="627" y1="41.5" y2="41.5" stroke="#224" stroke-width="3.6" stroke-linecap="round"></line>
  <line x1="507" x2="627" y1="84.5" y2="84.5" stroke="#224" stroke-width="3.6" stroke-linecap="round"></line>
  <path stroke-linecap="round" fill="none" d="M 524,20 m -12,0 a 12,12 0 1,0 24,0 a 12,12 0 1,0 -24,0" stroke="#224" stroke-width="10.8"></path>
  <path stroke-linecap="round" fill="none" d="M 524,20 m -12,0 a 12,12 0 1,0 24,0 a 12,12 0 1,0 -24,0" stroke="#7df" stroke-width="3.6"></path>
  <path stroke-linecap="round" fill="none" d="M 610,20 m -12,0 a 12,12 0 1,0 24,0 a 12,12 0 1,0 -24,0" stroke="#224" stroke-width="10.8"></path>
  <path stroke-linecap="round" fill="none" d="M 610,20 m -12,0 a 12,12 0 1,0 24,0 a 12,12 0 1,0 -24,0" stroke="#7df" stroke-width="3.6"></path>
  <line x1="512.5" x2="535.5" y1="51.5" y2="74.5" stroke="#224" stroke-width="10.8" stroke-linecap="round"></line>
  <line x1="512.5" x2="535.5" y1="74.5" y2="51.5" stroke="#224" stroke-width="10.8" stroke-linecap="round"></line>
  <line x1="512.5" x2="535.5" y1="74.5" y2="51.5" stroke="#f97" stroke-width="3.6" stroke-linecap="round"></line>
  <line x1="512.5" x2="535.5" y1="51.5" y2="74.5" stroke="#f97" stroke-width="3.6" stroke-linecap="round"></line>
  <line x1="512.5" x2="535.5" y1="94.5" y2="117.5" stroke="#224" stroke-width="10.8" stroke-linecap="round"></line>
  <line x1="512.5" x2="535.5" y1="117.5" y2="94.5" stroke="#224" stroke-width="10.8" stroke-linecap="round"></line>
  <line x1="512.5" x2="535.5" y1="117.5" y2="94.5" stroke="#f97" stroke-width="3.6" stroke-linecap="round"></line>
  <line x1="512.5" x2="535.5" y1="94.5" y2="117.5" stroke="#f97" stroke-width="3.6" stroke-linecap="round"></line>
  <path stroke-linecap="round" fill="none" d="M 567,106 m -12,0 a 12,12 0 1,0 24,0 a 12,12 0 1,0 -24,0" stroke="#224" stroke-width="10.8"></path>
  <path stroke-linecap="round" fill="none" d="M 567,106 m -12,0 a 12,12 0 1,0 24,0 a 12,12 0 1,0 -24,0" stroke="#7df" stroke-width="3.6"></path>
  <line x1="598.5" x2="621.5" y1="94.5" y2="117.5" stroke="#224" stroke-width="10.8" stroke-linecap="round"></line>
  <line x1="598.5" x2="621.5" y1="117.5" y2="94.5" stroke="#224" stroke-width="10.8" stroke-linecap="round"></line>
  <line x1="598.5" x2="621.5" y1="117.5" y2="94.5" stroke="#f97" stroke-width="3.6" stroke-linecap="round"></line>
  <line x1="598.5" x2="621.5" y1="94.5" y2="117.5" stroke="#f97" stroke-width="3.6" stroke-linecap="round"></line>
  <rect fill="transparent" height="132" width="132" stroke-linecap="round" stroke-linejoin="round" stroke-width="3" stroke-dasharray="9 15" stroke-dashoffset="4.5" x="501" y="-3" stroke="#fd7"></rect>
  <line stroke-linecap="round" x1="286.5309369990257" y1="183.33065670371622" x2="264.6" y2="176.4" stroke="#fff" stroke-width="3"></line>
  <line stroke-linecap="round" x1="283.09770039246774" y1="162.7312370643683" x2="264.6" y2="176.4" stroke="#fff" stroke-width="3"></line>
  <line stroke-linecap="round" x1="491.4" y1="138.6" x2="264.6" y2="176.4" stroke="#fff" stroke-width="3"></line>
  <line x1="167.5" x2="167.5" y1="192" y2="312" stroke="#224" stroke-width="3.6" stroke-linecap="round"></line>
  <line x1="210.5" x2="210.5" y1="192" y2="312" stroke="#224" stroke-width="3.6" stroke-linecap="round"></line>
  <line x1="129" x2="249" y1="230.5" y2="230.5" stroke="#224" stroke-width="3.6" stroke-linecap="round"></line>
  <line x1="129" x2="249" y1="273.5" y2="273.5" stroke="#224" stroke-width="3.6" stroke-linecap="round"></line>
  <path stroke-linecap="round" fill="none" d="M 146,209 m -12,0 a 12,12 0 1,0 24,0 a 12,12 0 1,0 -24,0" stroke="#224" stroke-width="10.8"></path>
  <path stroke-linecap="round" fill="none" d="M 146,209 m -12,0 a 12,12 0 1,0 24,0 a 12,12 0 1,0 -24,0" stroke="#7df" stroke-width="3.6"></path>
  <line x1="177.5" x2="200.5" y1="197.5" y2="220.5" stroke="#224" stroke-width="10.8" stroke-linecap="round"></line>
  <line x1="177.5" x2="200.5" y1="220.5" y2="197.5" stroke="#224" stroke-width="10.8" stroke-linecap="round"></line>
  <line x1="177.5" x2="200.5" y1="220.5" y2="197.5" stroke="#f97" stroke-width="3.6" stroke-linecap="round"></line>
  <line x1="177.5" x2="200.5" y1="197.5" y2="220.5" stroke="#f97" stroke-width="3.6" stroke-linecap="round"></line>
  <path stroke-linecap="round" fill="none" d="M 232,209 m -12,0 a 12,12 0 1,0 24,0 a 12,12 0 1,0 -24,0" stroke="#224" stroke-width="10.8"></path>
  <path stroke-linecap="round" fill="none" d="M 232,209 m -12,0 a 12,12 0 1,0 24,0 a 12,12 0 1,0 -24,0" stroke="#7df" stroke-width="3.6"></path>
  <line x1="134.5" x2="157.5" y1="240.5" y2="263.5" stroke="#224" stroke-width="10.8" stroke-linecap="round"></line>
  <line x1="134.5" x2="157.5" y1="263.5" y2="240.5" stroke="#224" stroke-width="10.8" stroke-linecap="round"></line>
  <line x1="134.5" x2="157.5" y1="263.5" y2="240.5" stroke="#f97" stroke-width="3.6" stroke-linecap="round"></line>
  <line x1="134.5" x2="157.5" y1="240.5" y2="263.5" stroke="#f97" stroke-width="3.6" stroke-linecap="round"></line>
  <line x1="134.5" x2="157.5" y1="283.5" y2="306.5" stroke="#224" stroke-width="10.8" stroke-linecap="round"></line>
  <line x1="134.5" x2="157.5" y1="306.5" y2="283.5" stroke="#224" stroke-width="10.8" stroke-linecap="round"></line>
  <line x1="134.5" x2="157.5" y1="306.5" y2="283.5" stroke="#f97" stroke-width="3.6" stroke-linecap="round"></line>
  <line x1="134.5" x2="157.5" y1="283.5" y2="306.5" stroke="#f97" stroke-width="3.6" stroke-linecap="round"></line>
  <path stroke-linecap="round" fill="none" d="M 189,295 m -12,0 a 12,12 0 1,0 24,0 a 12,12 0 1,0 -24,0" stroke="#224" stroke-width="10.8"></path>
  <path stroke-linecap="round" fill="none" d="M 189,295 m -12,0 a 12,12 0 1,0 24,0 a 12,12 0 1,0 -24,0" stroke="#7df" stroke-width="3.6"></path>
  <line x1="220.5" x2="243.5" y1="283.5" y2="306.5" stroke="#224" stroke-width="10.8" stroke-linecap="round"></line>
  <line x1="220.5" x2="243.5" y1="306.5" y2="283.5" stroke="#224" stroke-width="10.8" stroke-linecap="round"></line>
  <line x1="220.5" x2="243.5" y1="306.5" y2="283.5" stroke="#f97" stroke-width="3.6" stroke-linecap="round"></line>
  <line x1="220.5" x2="243.5" y1="283.5" y2="306.5" stroke="#f97" stroke-width="3.6" stroke-linecap="round"></line>
  <line stroke-linecap="round" x1="136.2433897799491" y1="362.7205330079815" x2="113.4" y2="365.4" stroke="#fff" stroke-width="3"></line>
  <line stroke-linecap="round" x1="124.65927329261294" y1="345.34435827697723" x2="113.4" y2="365.4" stroke="#fff" stroke-width="3"></line>
  <line stroke-linecap="round" x1="170.1" y1="327.6" x2="113.4" y2="365.4" stroke="#fff" stroke-width="3"></line>
  <line x1="73" x2="73" y1="381" y2="501" stroke="#224" stroke-width="3.6" stroke-linecap="round"></line>
  <line x1="116" x2="116" y1="381" y2="501" stroke="#224" stroke-width="3.6" stroke-linecap="round"></line>
  <line x1="34.5" x2="154.5" y1="419.5" y2="419.5" stroke="#224" stroke-width="3.6" stroke-linecap="round"></line>
  <line x1="34.5" x2="154.5" y1="462.5" y2="462.5" stroke="#224" stroke-width="3.6" stroke-linecap="round"></line>
  <path stroke-linecap="round" fill="none" d="M 51.5,398 m -12,0 a 12,12 0 1,0 24,0 a 12,12 0 1,0 -24,0" stroke="#224" stroke-width="10.8"></path>
  <path stroke-linecap="round" fill="none" d="M 51.5,398 m -12,0 a 12,12 0 1,0 24,0 a 12,12 0 1,0 -24,0" stroke="#7df" stroke-width="3.6"></path>
  <line x1="83" x2="106" y1="386.5" y2="409.5" stroke="#224" stroke-width="10.8" stroke-linecap="round"></line>
  <line x1="83" x2="106" y1="409.5" y2="386.5" stroke="#224" stroke-width="10.8" stroke-linecap="round"></line>
  <line x1="83" x2="106" y1="409.5" y2="386.5" stroke="#f97" stroke-width="3.6" stroke-linecap="round"></line>
  <line x1="83" x2="106" y1="386.5" y2="409.5" stroke="#f97" stroke-width="3.6" stroke-linecap="round"></line>
  <path stroke-linecap="round" fill="none" d="M 137.5,398 m -12,0 a 12,12 0 1,0 24,0 a 12,12 0 1,0 -24,0" stroke="#224" stroke-width="10.8"></path>
  <path stroke-linecap="round" fill="none" d="M 137.5,398 m -12,0 a 12,12 0 1,0 24,0 a 12,12 0 1,0 -24,0" stroke="#7df" stroke-width="3.6"></path>
  <line x1="40" x2="63" y1="429.5" y2="452.5" stroke="#224" stroke-width="10.8" stroke-linecap="round"></line>
  <line x1="40" x2="63" y1="452.5" y2="429.5" stroke="#224" stroke-width="10.8" stroke-linecap="round"></line>
  <line x1="40" x2="63" y1="452.5" y2="429.5" stroke="#f97" stroke-width="3.6" stroke-linecap="round"></line>
  <line x1="40" x2="63" y1="429.5" y2="452.5" stroke="#f97" stroke-width="3.6" stroke-linecap="round"></line>
  <path stroke-linecap="round" fill="none" d="M 94.5,441 m -12,0 a 12,12 0 1,0 24,0 a 12,12 0 1,0 -24,0" stroke="#224" stroke-width="10.8"></path>
  <path stroke-linecap="round" fill="none" d="M 94.5,441 m -12,0 a 12,12 0 1,0 24,0 a 12,12 0 1,0 -24,0" stroke="#7df" stroke-width="3.6"></path>
  <line x1="40" x2="63" y1="472.5" y2="495.5" stroke="#224" stroke-width="10.8" stroke-linecap="round"></line>
  <line x1="40" x2="63" y1="495.5" y2="472.5" stroke="#224" stroke-width="10.8" stroke-linecap="round"></line>
  <line x1="40" x2="63" y1="495.5" y2="472.5" stroke="#f97" stroke-width="3.6" stroke-linecap="round"></line>
  <line x1="40" x2="63" y1="472.5" y2="495.5" stroke="#f97" stroke-width="3.6" stroke-linecap="round"></line>
  <path stroke-linecap="round" fill="none" d="M 94.5,484 m -12,0 a 12,12 0 1,0 24,0 a 12,12 0 1,0 -24,0" stroke="#224" stroke-width="10.8"></path>
  <path stroke-linecap="round" fill="none" d="M 94.5,484 m -12,0 a 12,12 0 1,0 24,0 a 12,12 0 1,0 -24,0" stroke="#7df" stroke-width="3.6"></path>
  <line x1="126" x2="149" y1="472.5" y2="495.5" stroke="#224" stroke-width="10.8" stroke-linecap="round"></line>
  <line x1="126" x2="149" y1="495.5" y2="472.5" stroke="#224" stroke-width="10.8" stroke-linecap="round"></line>
  <line x1="126" x2="149" y1="495.5" y2="472.5" stroke="#f97" stroke-width="3.6" stroke-linecap="round"></line>
  <line x1="126" x2="149" y1="472.5" y2="495.5" stroke="#f97" stroke-width="3.6" stroke-linecap="round"></line>
  <rect fill="transparent" height="132" width="132" stroke-linecap="round" stroke-linejoin="round" stroke-width="3" stroke-dasharray="9 15" stroke-dashoffset="4.5" x="28.5" y="375" stroke="#77f"></rect>
  <line stroke-linecap="round" x1="253.3407267073871" y1="345.34435827697723" x2="264.6" y2="365.4" stroke="#fff" stroke-width="3"></line>
  <line stroke-linecap="round" x1="241.75661022005093" y1="362.7205330079815" x2="264.6" y2="365.4" stroke="#fff" stroke-width="3"></line>
  <line stroke-linecap="round" x1="207.9" y1="327.6" x2="264.6" y2="365.4" stroke="#fff" stroke-width="3"></line>
  <line x1="262" x2="262" y1="381" y2="501" stroke="#224" stroke-width="3.6" stroke-linecap="round"></line>
  <line x1="305" x2="305" y1="381" y2="501" stroke="#224" stroke-width="3.6" stroke-linecap="round"></line>
  <line x1="223.5" x2="343.5" y1="419.5" y2="419.5" stroke="#224" stroke-width="3.6" stroke-linecap="round"></line>
  <line x1="223.5" x2="343.5" y1="462.5" y2="462.5" stroke="#224" stroke-width="3.6" stroke-linecap="round"></line>
  <path stroke-linecap="round" fill="none" d="M 240.5,398 m -12,0 a 12,12 0 1,0 24,0 a 12,12 0 1,0 -24,0" stroke="#224" stroke-width="10.8"></path>
  <path stroke-linecap="round" fill="none" d="M 240.5,398 m -12,0 a 12,12 0 1,0 24,0 a 12,12 0 1,0 -24,0" stroke="#7df" stroke-width="3.6"></path>
  <line x1="272" x2="295" y1="386.5" y2="409.5" stroke="#224" stroke-width="10.8" stroke-linecap="round"></line>
  <line x1="272" x2="295" y1="409.5" y2="386.5" stroke="#224" stroke-width="10.8" stroke-linecap="round"></line>
  <line x1="272" x2="295" y1="409.5" y2="386.5" stroke="#f97" stroke-width="3.6" stroke-linecap="round"></line>
  <line x1="272" x2="295" y1="386.5" y2="409.5" stroke="#f97" stroke-width="3.6" stroke-linecap="round"></line>
  <path stroke-linecap="round" fill="none" d="M 326.5,398 m -12,0 a 12,12 0 1,0 24,0 a 12,12 0 1,0 -24,0" stroke="#224" stroke-width="10.8"></path>
  <path stroke-linecap="round" fill="none" d="M 326.5,398 m -12,0 a 12,12 0 1,0 24,0 a 12,12 0 1,0 -24,0" stroke="#7df" stroke-width="3.6"></path>
  <line x1="229" x2="252" y1="429.5" y2="452.5" stroke="#224" stroke-width="10.8" stroke-linecap="round"></line>
  <line x1="229" x2="252" y1="452.5" y2="429.5" stroke="#224" stroke-width="10.8" stroke-linecap="round"></line>
  <line x1="229" x2="252" y1="452.5" y2="429.5" stroke="#f97" stroke-width="3.6" stroke-linecap="round"></line>
  <line x1="229" x2="252" y1="429.5" y2="452.5" stroke="#f97" stroke-width="3.6" stroke-linecap="round"></line>
  <path stroke-linecap="round" fill="none" d="M 326.5,441 m -12,0 a 12,12 0 1,0 24,0 a 12,12 0 1,0 -24,0" stroke="#224" stroke-width="10.8"></path>
  <path stroke-linecap="round" fill="none" d="M 326.5,441 m -12,0 a 12,12 0 1,0 24,0 a 12,12 0 1,0 -24,0" stroke="#7df" stroke-width="3.6"></path>
  <line x1="229" x2="252" y1="472.5" y2="495.5" stroke="#224" stroke-width="10.8" stroke-linecap="round"></line>
  <line x1="229" x2="252" y1="495.5" y2="472.5" stroke="#224" stroke-width="10.8" stroke-linecap="round"></line>
  <line x1="229" x2="252" y1="495.5" y2="472.5" stroke="#f97" stroke-width="3.6" stroke-linecap="round"></line>
  <line x1="229" x2="252" y1="472.5" y2="495.5" stroke="#f97" stroke-width="3.6" stroke-linecap="round"></line>
  <path stroke-linecap="round" fill="none" d="M 283.5,484 m -12,0 a 12,12 0 1,0 24,0 a 12,12 0 1,0 -24,0" stroke="#224" stroke-width="10.8"></path>
  <path stroke-linecap="round" fill="none" d="M 283.5,484 m -12,0 a 12,12 0 1,0 24,0 a 12,12 0 1,0 -24,0" stroke="#7df" stroke-width="3.6"></path>
  <line x1="315" x2="338" y1="472.5" y2="495.5" stroke="#224" stroke-width="10.8" stroke-linecap="round"></line>
  <line x1="315" x2="338" y1="495.5" y2="472.5" stroke="#224" stroke-width="10.8" stroke-linecap="round"></line>
  <line x1="315" x2="338" y1="495.5" y2="472.5" stroke="#f97" stroke-width="3.6" stroke-linecap="round"></line>
  <line x1="315" x2="338" y1="472.5" y2="495.5" stroke="#f97" stroke-width="3.6" stroke-linecap="round"></line>
  <rect fill="transparent" height="132" width="132" stroke-linecap="round" stroke-linejoin="round" stroke-width="3" stroke-dasharray="9 15" stroke-dashoffset="4.5" x="217.5" y="375" stroke="#77f"></rect>
  <line stroke-linecap="round" x1="577.4417814940095" y1="155.90684994366757" x2="567" y2="176.4" stroke="#fff" stroke-width="3"></line>
  <line stroke-linecap="round" x1="556.5582185059905" y1="155.90684994366757" x2="567" y2="176.4" stroke="#fff" stroke-width="3"></line>
  <line stroke-linecap="round" x1="567" y1="138.6" x2="567" y2="176.4" stroke="#fff" stroke-width="3"></line>
  <line x1="545.5" x2="545.5" y1="192" y2="312" stroke="#224" stroke-width="3.6" stroke-linecap="round"></line>
  <line x1="588.5" x2="588.5" y1="192" y2="312" stroke="#224" stroke-width="3.6" stroke-linecap="round"></line>
  <line x1="507" x2="627" y1="230.5" y2="230.5" stroke="#224" stroke-width="3.6" stroke-linecap="round"></line>
  <line x1="507" x2="627" y1="273.5" y2="273.5" stroke="#224" stroke-width="3.6" stroke-linecap="round"></line>
  <path stroke-linecap="round" fill="none" d="M 524,209 m -12,0 a 12,12 0 1,0 24,0 a 12,12 0 1,0 -24,0" stroke="#224" stroke-width="10.8"></path>
  <path stroke-linecap="round" fill="none" d="M 524,209 m -12,0 a 12,12 0 1,0 24,0 a 12,12 0 1,0 -24,0" stroke="#7df" stroke-width="3.6"></path>
  <path stroke-linecap="round" fill="none" d="M 610,209 m -12,0 a 12,12 0 1,0 24,0 a 12,12 0 1,0 -24,0" stroke="#224" stroke-width="10.8"></path>
  <path stroke-linecap="round" fill="none" d="M 610,209 m -12,0 a 12,12 0 1,0 24,0 a 12,12 0 1,0 -24,0" stroke="#7df" stroke-width="3.6"></path>
  <line x1="512.5" x2="535.5" y1="240.5" y2="263.5" stroke="#224" stroke-width="10.8" stroke-linecap="round"></line>
  <line x1="512.5" x2="535.5" y1="263.5" y2="240.5" stroke="#224" stroke-width="10.8" stroke-linecap="round"></line>
  <line x1="512.5" x2="535.5" y1="263.5" y2="240.5" stroke="#f97" stroke-width="3.6" stroke-linecap="round"></line>
  <line x1="512.5" x2="535.5" y1="240.5" y2="263.5" stroke="#f97" stroke-width="3.6" stroke-linecap="round"></line>
  <line x1="555.5" x2="578.5" y1="240.5" y2="263.5" stroke="#224" stroke-width="10.8" stroke-linecap="round"></line>
  <line x1="555.5" x2="578.5" y1="263.5" y2="240.5" stroke="#224" stroke-width="10.8" stroke-linecap="round"></line>
  <line x1="555.5" x2="578.5" y1="263.5" y2="240.5" stroke="#f97" stroke-width="3.6" stroke-linecap="round"></line>
  <line x1="555.5" x2="578.5" y1="240.5" y2="263.5" stroke="#f97" stroke-width="3.6" stroke-linecap="round"></line>
  <line x1="512.5" x2="535.5" y1="283.5" y2="306.5" stroke="#224" stroke-width="10.8" stroke-linecap="round"></line>
  <line x1="512.5" x2="535.5" y1="306.5" y2="283.5" stroke="#224" stroke-width="10.8" stroke-linecap="round"></line>
  <line x1="512.5" x2="535.5" y1="306.5" y2="283.5" stroke="#f97" stroke-width="3.6" stroke-linecap="round"></line>
  <line x1="512.5" x2="535.5" y1="283.5" y2="306.5" stroke="#f97" stroke-width="3.6" stroke-linecap="round"></line>
  <path stroke-linecap="round" fill="none" d="M 567,295 m -12,0 a 12,12 0 1,0 24,0 a 12,12 0 1,0 -24,0" stroke="#224" stroke-width="10.8"></path>
  <path stroke-linecap="round" fill="none" d="M 567,295 m -12,0 a 12,12 0 1,0 24,0 a 12,12 0 1,0 -24,0" stroke="#7df" stroke-width="3.6"></path>
  <line x1="598.5" x2="621.5" y1="283.5" y2="306.5" stroke="#224" stroke-width="10.8" stroke-linecap="round"></line>
  <line x1="598.5" x2="621.5" y1="306.5" y2="283.5" stroke="#224" stroke-width="10.8" stroke-linecap="round"></line>
  <line x1="598.5" x2="621.5" y1="306.5" y2="283.5" stroke="#f97" stroke-width="3.6" stroke-linecap="round"></line>
  <line x1="598.5" x2="621.5" y1="283.5" y2="306.5" stroke="#f97" stroke-width="3.6" stroke-linecap="round"></line>
  <line stroke-linecap="round" x1="514.2433897799491" y1="362.7205330079815" x2="491.4" y2="365.4" stroke="#fff" stroke-width="3"></line>
  <line stroke-linecap="round" x1="502.6592732926129" y1="345.34435827697723" x2="491.4" y2="365.4" stroke="#fff" stroke-width="3"></line>
  <line stroke-linecap="round" x1="548.1" y1="327.6" x2="491.4" y2="365.4" stroke="#fff" stroke-width="3"></line>
  <line x1="451" x2="451" y1="381" y2="501" stroke="#224" stroke-width="3.6" stroke-linecap="round"></line>
  <line x1="494" x2="494" y1="381" y2="501" stroke="#224" stroke-width="3.6" stroke-linecap="round"></line>
  <line x1="412.5" x2="532.5" y1="419.5" y2="419.5" stroke="#224" stroke-width="3.6" stroke-linecap="round"></line>
  <line x1="412.5" x2="532.5" y1="462.5" y2="462.5" stroke="#224" stroke-width="3.6" stroke-linecap="round"></line>
  <path stroke-linecap="round" fill="none" d="M 429.5,398 m -12,0 a 12,12 0 1,0 24,0 a 12,12 0 1,0 -24,0" stroke="#224" stroke-width="10.8"></path>
  <path stroke-linecap="round" fill="none" d="M 429.5,398 m -12,0 a 12,12 0 1,0 24,0 a 12,12 0 1,0 -24,0" stroke="#7df" stroke-width="3.6"></path>
  <path stroke-linecap="round" fill="none" d="M 472.5,398 m -12,0 a 12,12 0 1,0 24,0 a 12,12 0 1,0 -24,0" stroke="#224" stroke-width="10.8"></path>
  <path stroke-linecap="round" fill="none" d="M 472.5,398 m -12,0 a 12,12 0 1,0 24,0 a 12,12 0 1,0 -24,0" stroke="#7df" stroke-width="3.6"></path>
  <path stroke-linecap="round" fill="none" d="M 515.5,398 m -12,0 a 12,12 0 1,0 24,0 a 12,12 0 1,0 -24,0" stroke="#224" stroke-width="10.8"></path>
  <path stroke-linecap="round" fill="none" d="M 515.5,398 m -12,0 a 12,12 0 1,0 24,0 a 12,12 0 1,0 -24,0" stroke="#7df" stroke-width="3.6"></path>
  <line x1="418" x2="441" y1="429.5" y2="452.5" stroke="#224" stroke-width="10.8" stroke-linecap="round"></line>
  <line x1="418" x2="441" y1="452.5" y2="429.5" stroke="#224" stroke-width="10.8" stroke-linecap="round"></line>
  <line x1="418" x2="441" y1="452.5" y2="429.5" stroke="#f97" stroke-width="3.6" stroke-linecap="round"></line>
  <line x1="418" x2="441" y1="429.5" y2="452.5" stroke="#f97" stroke-width="3.6" stroke-linecap="round"></line>
  <line x1="461" x2="484" y1="429.5" y2="452.5" stroke="#224" stroke-width="10.8" stroke-linecap="round"></line>
  <line x1="461" x2="484" y1="452.5" y2="429.5" stroke="#224" stroke-width="10.8" stroke-linecap="round"></line>
  <line x1="461" x2="484" y1="452.5" y2="429.5" stroke="#f97" stroke-width="3.6" stroke-linecap="round"></line>
  <line x1="461" x2="484" y1="429.5" y2="452.5" stroke="#f97" stroke-width="3.6" stroke-linecap="round"></line>
  <line x1="418" x2="441" y1="472.5" y2="495.5" stroke="#224" stroke-width="10.8" stroke-linecap="round"></line>
  <line x1="418" x2="441" y1="495.5" y2="472.5" stroke="#224" stroke-width="10.8" stroke-linecap="round"></line>
  <line x1="418" x2="441" y1="495.5" y2="472.5" stroke="#f97" stroke-width="3.6" stroke-linecap="round"></line>
  <line x1="418" x2="441" y1="472.5" y2="495.5" stroke="#f97" stroke-width="3.6" stroke-linecap="round"></line>
  <path stroke-linecap="round" fill="none" d="M 472.5,484 m -12,0 a 12,12 0 1,0 24,0 a 12,12 0 1,0 -24,0" stroke="#224" stroke-width="10.8"></path>
  <path stroke-linecap="round" fill="none" d="M 472.5,484 m -12,0 a 12,12 0 1,0 24,0 a 12,12 0 1,0 -24,0" stroke="#7df" stroke-width="3.6"></path>
  <line x1="504" x2="527" y1="472.5" y2="495.5" stroke="#224" stroke-width="10.8" stroke-linecap="round"></line>
  <line x1="504" x2="527" y1="495.5" y2="472.5" stroke="#224" stroke-width="10.8" stroke-linecap="round"></line>
  <line x1="504" x2="527" y1="495.5" y2="472.5" stroke="#f97" stroke-width="3.6" stroke-linecap="round"></line>
  <line x1="504" x2="527" y1="472.5" y2="495.5" stroke="#f97" stroke-width="3.6" stroke-linecap="round"></line>
  <rect fill="transparent" height="132" width="132" stroke-linecap="round" stroke-linejoin="round" stroke-width="3" stroke-dasharray="9 15" stroke-dashoffset="4.5" x="406.5" y="375" stroke="#f77"></rect>
  <line stroke-linecap="round" x1="631.340726707387" y1="345.34435827697723" x2="642.6" y2="365.4" stroke="#fff" stroke-width="3"></line>
  <line stroke-linecap="round" x1="619.7566102200509" y1="362.7205330079815" x2="642.6" y2="365.4" stroke="#fff" stroke-width="3"></line>
  <line stroke-linecap="round" x1="585.9" y1="327.6" x2="642.6" y2="365.4" stroke="#fff" stroke-width="3"></line>
  <line x1="640" x2="640" y1="381" y2="501" stroke="#224" stroke-width="3.6" stroke-linecap="round"></line>
  <line x1="683" x2="683" y1="381" y2="501" stroke="#224" stroke-width="3.6" stroke-linecap="round"></line>
  <line x1="601.5" x2="721.5" y1="419.5" y2="419.5" stroke="#224" stroke-width="3.6" stroke-linecap="round"></line>
  <line x1="601.5" x2="721.5" y1="462.5" y2="462.5" stroke="#224" stroke-width="3.6" stroke-linecap="round"></line>
  <path stroke-linecap="round" fill="none" d="M 618.5,398 m -12,0 a 12,12 0 1,0 24,0 a 12,12 0 1,0 -24,0" stroke="#224" stroke-width="10.8"></path>
  <path stroke-linecap="round" fill="none" d="M 618.5,398 m -12,0 a 12,12 0 1,0 24,0 a 12,12 0 1,0 -24,0" stroke="#7df" stroke-width="3.6"></path>
  <path stroke-linecap="round" fill="none" d="M 704.5,398 m -12,0 a 12,12 0 1,0 24,0 a 12,12 0 1,0 -24,0" stroke="#224" stroke-width="10.8"></path>
  <path stroke-linecap="round" fill="none" d="M 704.5,398 m -12,0 a 12,12 0 1,0 24,0 a 12,12 0 1,0 -24,0" stroke="#7df" stroke-width="3.6"></path>
  <line x1="607" x2="630" y1="429.5" y2="452.5" stroke="#224" stroke-width="10.8" stroke-linecap="round"></line>
  <line x1="607" x2="630" y1="452.5" y2="429.5" stroke="#224" stroke-width="10.8" stroke-linecap="round"></line>
  <line x1="607" x2="630" y1="452.5" y2="429.5" stroke="#f97" stroke-width="3.6" stroke-linecap="round"></line>
  <line x1="607" x2="630" y1="429.5" y2="452.5" stroke="#f97" stroke-width="3.6" stroke-linecap="round"></line>
  <line x1="650" x2="673" y1="429.5" y2="452.5" stroke="#224" stroke-width="10.8" stroke-linecap="round"></line>
  <line x1="650" x2="673" y1="452.5" y2="429.5" stroke="#224" stroke-width="10.8" stroke-linecap="round"></line>
  <line x1="650" x2="673" y1="452.5" y2="429.5" stroke="#f97" stroke-width="3.6" stroke-linecap="round"></line>
  <line x1="650" x2="673" y1="429.5" y2="452.5" stroke="#f97" stroke-width="3.6" stroke-linecap="round"></line>
  <path stroke-linecap="round" fill="none" d="M 704.5,441 m -12,0 a 12,12 0 1,0 24,0 a 12,12 0 1,0 -24,0" stroke="#224" stroke-width="10.8"></path>
  <path stroke-linecap="round" fill="none" d="M 704.5,441 m -12,0 a 12,12 0 1,0 24,0 a 12,12 0 1,0 -24,0" stroke="#7df" stroke-width="3.6"></path>
  <line x1="607" x2="630" y1="472.5" y2="495.5" stroke="#224" stroke-width="10.8" stroke-linecap="round"></line>
  <line x1="607" x2="630" y1="495.5" y2="472.5" stroke="#224" stroke-width="10.8" stroke-linecap="round"></line>
  <line x1="607" x2="630" y1="495.5" y2="472.5" stroke="#f97" stroke-width="3.6" stroke-linecap="round"></line>
  <line x1="607" x2="630" y1="472.5" y2="495.5" stroke="#f97" stroke-width="3.6" stroke-linecap="round"></line>
  <path stroke-linecap="round" fill="none" d="M 661.5,484 m -12,0 a 12,12 0 1,0 24,0 a 12,12 0 1,0 -24,0" stroke="#224" stroke-width="10.8"></path>
  <path stroke-linecap="round" fill="none" d="M 661.5,484 m -12,0 a 12,12 0 1,0 24,0 a 12,12 0 1,0 -24,0" stroke="#7df" stroke-width="3.6"></path>
  <line x1="693" x2="716" y1="472.5" y2="495.5" stroke="#224" stroke-width="10.8" stroke-linecap="round"></line>
  <line x1="693" x2="716" y1="495.5" y2="472.5" stroke="#224" stroke-width="10.8" stroke-linecap="round"></line>
  <line x1="693" x2="716" y1="495.5" y2="472.5" stroke="#f97" stroke-width="3.6" stroke-linecap="round"></line>
  <line x1="693" x2="716" y1="472.5" y2="495.5" stroke="#f97" stroke-width="3.6" stroke-linecap="round"></line>
  <rect fill="transparent" height="132" width="132" stroke-linecap="round" stroke-linejoin="round" stroke-width="3" stroke-dasharray="9 15" stroke-dashoffset="4.5" x="595.5" y="375" stroke="#77f"></rect>
  <line stroke-linecap="round" x1="850.9022996075323" y1="162.7312370643683" x2="869.4" y2="176.4" stroke="#fff" stroke-width="3"></line>
  <line stroke-linecap="round" x1="847.4690630009743" y1="183.33065670371622" x2="869.4" y2="176.4" stroke="#fff" stroke-width="3"></line>
  <line stroke-linecap="round" x1="642.6" y1="138.6" x2="869.4" y2="176.4" stroke="#fff" stroke-width="3"></line>
  <line x1="923.5" x2="923.5" y1="192" y2="312" stroke="#224" stroke-width="3.6" stroke-linecap="round"></line>
  <line x1="966.5" x2="966.5" y1="192" y2="312" stroke="#224" stroke-width="3.6" stroke-linecap="round"></line>
  <line x1="885" x2="1005" y1="230.5" y2="230.5" stroke="#224" stroke-width="3.6" stroke-linecap="round"></line>
  <line x1="885" x2="1005" y1="273.5" y2="273.5" stroke="#224" stroke-width="3.6" stroke-linecap="round"></line>
  <path stroke-linecap="round" fill="none" d="M 902,209 m -12,0 a 12,12 0 1,0 24,0 a 12,12 0 1,0 -24,0" stroke="#224" stroke-width="10.8"></path>
  <path stroke-linecap="round" fill="none" d="M 902,209 m -12,0 a 12,12 0 1,0 24,0 a 12,12 0 1,0 -24,0" stroke="#7df" stroke-width="3.6"></path>
  <path stroke-linecap="round" fill="none" d="M 988,209 m -12,0 a 12,12 0 1,0 24,0 a 12,12 0 1,0 -24,0" stroke="#224" stroke-width="10.8"></path>
  <path stroke-linecap="round" fill="none" d="M 988,209 m -12,0 a 12,12 0 1,0 24,0 a 12,12 0 1,0 -24,0" stroke="#7df" stroke-width="3.6"></path>
  <line x1="890.5" x2="913.5" y1="240.5" y2="263.5" stroke="#224" stroke-width="10.8" stroke-linecap="round"></line>
  <line x1="890.5" x2="913.5" y1="263.5" y2="240.5" stroke="#224" stroke-width="10.8" stroke-linecap="round"></line>
  <line x1="890.5" x2="913.5" y1="263.5" y2="240.5" stroke="#f97" stroke-width="3.6" stroke-linecap="round"></line>
  <line x1="890.5" x2="913.5" y1="240.5" y2="263.5" stroke="#f97" stroke-width="3.6" stroke-linecap="round"></line>
  <line x1="976.5" x2="999.5" y1="240.5" y2="263.5" stroke="#224" stroke-width="10.8" stroke-linecap="round"></line>
  <line x1="976.5" x2="999.5" y1="263.5" y2="240.5" stroke="#224" stroke-width="10.8" stroke-linecap="round"></line>
  <line x1="976.5" x2="999.5" y1="263.5" y2="240.5" stroke="#f97" stroke-width="3.6" stroke-linecap="round"></line>
  <line x1="976.5" x2="999.5" y1="240.5" y2="263.5" stroke="#f97" stroke-width="3.6" stroke-linecap="round"></line>
  <line x1="890.5" x2="913.5" y1="283.5" y2="306.5" stroke="#224" stroke-width="10.8" stroke-linecap="round"></line>
  <line x1="890.5" x2="913.5" y1="306.5" y2="283.5" stroke="#224" stroke-width="10.8" stroke-linecap="round"></line>
  <line x1="890.5" x2="913.5" y1="306.5" y2="283.5" stroke="#f97" stroke-width="3.6" stroke-linecap="round"></line>
  <line x1="890.5" x2="913.5" y1="283.5" y2="306.5" stroke="#f97" stroke-width="3.6" stroke-linecap="round"></line>
  <path stroke-linecap="round" fill="none" d="M 945,295 m -12,0 a 12,12 0 1,0 24,0 a 12,12 0 1,0 -24,0" stroke="#224" stroke-width="10.8"></path>
  <path stroke-linecap="round" fill="none" d="M 945,295 m -12,0 a 12,12 0 1,0 24,0 a 12,12 0 1,0 -24,0" stroke="#7df" stroke-width="3.6"></path>
  <line x1="976.5" x2="999.5" y1="283.5" y2="306.5" stroke="#224" stroke-width="10.8" stroke-linecap="round"></line>
  <line x1="976.5" x2="999.5" y1="306.5" y2="283.5" stroke="#224" stroke-width="10.8" stroke-linecap="round"></line>
  <line x1="976.5" x2="999.5" y1="306.5" y2="283.5" stroke="#f97" stroke-width="3.6" stroke-linecap="round"></line>
  <line x1="976.5" x2="999.5" y1="283.5" y2="306.5" stroke="#f97" stroke-width="3.6" stroke-linecap="round"></line>
  <line stroke-linecap="round" x1="892.2433897799492" y1="362.7205330079815" x2="869.4" y2="365.4" stroke="#fff" stroke-width="3"></line>
  <line stroke-linecap="round" x1="880.6592732926131" y1="345.34435827697723" x2="869.4" y2="365.4" stroke="#fff" stroke-width="3"></line>
  <line stroke-linecap="round" x1="926.1" y1="327.6" x2="869.4" y2="365.4" stroke="#fff" stroke-width="3"></line>
  <line x1="829" x2="829" y1="381" y2="501" stroke="#224" stroke-width="3.6" stroke-linecap="round"></line>
  <line x1="872" x2="872" y1="381" y2="501" stroke="#224" stroke-width="3.6" stroke-linecap="round"></line>
  <line x1="790.5" x2="910.5" y1="419.5" y2="419.5" stroke="#224" stroke-width="3.6" stroke-linecap="round"></line>
  <line x1="790.5" x2="910.5" y1="462.5" y2="462.5" stroke="#224" stroke-width="3.6" stroke-linecap="round"></line>
  <path stroke-linecap="round" fill="none" d="M 807.5,398 m -12,0 a 12,12 0 1,0 24,0 a 12,12 0 1,0 -24,0" stroke="#224" stroke-width="10.8"></path>
  <path stroke-linecap="round" fill="none" d="M 807.5,398 m -12,0 a 12,12 0 1,0 24,0 a 12,12 0 1,0 -24,0" stroke="#7df" stroke-width="3.6"></path>
  <path stroke-linecap="round" fill="none" d="M 850.5,398 m -12,0 a 12,12 0 1,0 24,0 a 12,12 0 1,0 -24,0" stroke="#224" stroke-width="10.8"></path>
  <path stroke-linecap="round" fill="none" d="M 850.5,398 m -12,0 a 12,12 0 1,0 24,0 a 12,12 0 1,0 -24,0" stroke="#7df" stroke-width="3.6"></path>
  <path stroke-linecap="round" fill="none" d="M 893.5,398 m -12,0 a 12,12 0 1,0 24,0 a 12,12 0 1,0 -24,0" stroke="#224" stroke-width="10.8"></path>
  <path stroke-linecap="round" fill="none" d="M 893.5,398 m -12,0 a 12,12 0 1,0 24,0 a 12,12 0 1,0 -24,0" stroke="#7df" stroke-width="3.6"></path>
  <line x1="796" x2="819" y1="429.5" y2="452.5" stroke="#224" stroke-width="10.8" stroke-linecap="round"></line>
  <line x1="796" x2="819" y1="452.5" y2="429.5" stroke="#224" stroke-width="10.8" stroke-linecap="round"></line>
  <line x1="796" x2="819" y1="452.5" y2="429.5" stroke="#f97" stroke-width="3.6" stroke-linecap="round"></line>
  <line x1="796" x2="819" y1="429.5" y2="452.5" stroke="#f97" stroke-width="3.6" stroke-linecap="round"></line>
  <line x1="882" x2="905" y1="429.5" y2="452.5" stroke="#224" stroke-width="10.8" stroke-linecap="round"></line>
  <line x1="882" x2="905" y1="452.5" y2="429.5" stroke="#224" stroke-width="10.8" stroke-linecap="round"></line>
  <line x1="882" x2="905" y1="452.5" y2="429.5" stroke="#f97" stroke-width="3.6" stroke-linecap="round"></line>
  <line x1="882" x2="905" y1="429.5" y2="452.5" stroke="#f97" stroke-width="3.6" stroke-linecap="round"></line>
  <line x1="796" x2="819" y1="472.5" y2="495.5" stroke="#224" stroke-width="10.8" stroke-linecap="round"></line>
  <line x1="796" x2="819" y1="495.5" y2="472.5" stroke="#224" stroke-width="10.8" stroke-linecap="round"></line>
  <line x1="796" x2="819" y1="495.5" y2="472.5" stroke="#f97" stroke-width="3.6" stroke-linecap="round"></line>
  <line x1="796" x2="819" y1="472.5" y2="495.5" stroke="#f97" stroke-width="3.6" stroke-linecap="round"></line>
  <path stroke-linecap="round" fill="none" d="M 850.5,484 m -12,0 a 12,12 0 1,0 24,0 a 12,12 0 1,0 -24,0" stroke="#224" stroke-width="10.8"></path>
  <path stroke-linecap="round" fill="none" d="M 850.5,484 m -12,0 a 12,12 0 1,0 24,0 a 12,12 0 1,0 -24,0" stroke="#7df" stroke-width="3.6"></path>
  <line x1="882" x2="905" y1="472.5" y2="495.5" stroke="#224" stroke-width="10.8" stroke-linecap="round"></line>
  <line x1="882" x2="905" y1="495.5" y2="472.5" stroke="#224" stroke-width="10.8" stroke-linecap="round"></line>
  <line x1="882" x2="905" y1="495.5" y2="472.5" stroke="#f97" stroke-width="3.6" stroke-linecap="round"></line>
  <line x1="882" x2="905" y1="472.5" y2="495.5" stroke="#f97" stroke-width="3.6" stroke-linecap="round"></line>
  <rect fill="transparent" height="132" width="132" stroke-linecap="round" stroke-linejoin="round" stroke-width="3" stroke-dasharray="9 15" stroke-dashoffset="4.5" x="784.5" y="375" stroke="#f77"></rect>
  <line stroke-linecap="round" x1="1009.340726707387" y1="345.34435827697723" x2="1020.6" y2="365.4" stroke="#fff" stroke-width="3"></line>
  <line stroke-linecap="round" x1="997.7566102200509" y1="362.7205330079815" x2="1020.6" y2="365.4" stroke="#fff" stroke-width="3"></line>
  <line stroke-linecap="round" x1="963.9" y1="327.6" x2="1020.6" y2="365.4" stroke="#fff" stroke-width="3"></line>
  <line x1="1018" x2="1018" y1="381" y2="501" stroke="#224" stroke-width="3.6" stroke-linecap="round"></line>
  <line x1="1061" x2="1061" y1="381" y2="501" stroke="#224" stroke-width="3.6" stroke-linecap="round"></line>
  <line x1="979.5" x2="1099.5" y1="419.5" y2="419.5" stroke="#224" stroke-width="3.6" stroke-linecap="round"></line>
  <line x1="979.5" x2="1099.5" y1="462.5" y2="462.5" stroke="#224" stroke-width="3.6" stroke-linecap="round"></line>
  <path stroke-linecap="round" fill="none" d="M 996.5,398 m -12,0 a 12,12 0 1,0 24,0 a 12,12 0 1,0 -24,0" stroke="#224" stroke-width="10.8"></path>
  <path stroke-linecap="round" fill="none" d="M 996.5,398 m -12,0 a 12,12 0 1,0 24,0 a 12,12 0 1,0 -24,0" stroke="#7df" stroke-width="3.6"></path>
  <path stroke-linecap="round" fill="none" d="M 1082.5,398 m -12,0 a 12,12 0 1,0 24,0 a 12,12 0 1,0 -24,0" stroke="#224" stroke-width="10.8"></path>
  <path stroke-linecap="round" fill="none" d="M 1082.5,398 m -12,0 a 12,12 0 1,0 24,0 a 12,12 0 1,0 -24,0" stroke="#7df" stroke-width="3.6"></path>
  <line x1="985" x2="1008" y1="429.5" y2="452.5" stroke="#224" stroke-width="10.8" stroke-linecap="round"></line>
  <line x1="985" x2="1008" y1="452.5" y2="429.5" stroke="#224" stroke-width="10.8" stroke-linecap="round"></line>
  <line x1="985" x2="1008" y1="452.5" y2="429.5" stroke="#f97" stroke-width="3.6" stroke-linecap="round"></line>
  <line x1="985" x2="1008" y1="429.5" y2="452.5" stroke="#f97" stroke-width="3.6" stroke-linecap="round"></line>
  <path stroke-linecap="round" fill="none" d="M 1039.5,441 m -12,0 a 12,12 0 1,0 24,0 a 12,12 0 1,0 -24,0" stroke="#224" stroke-width="10.8"></path>
  <path stroke-linecap="round" fill="none" d="M 1039.5,441 m -12,0 a 12,12 0 1,0 24,0 a 12,12 0 1,0 -24,0" stroke="#7df" stroke-width="3.6"></path>
  <line x1="1071" x2="1094" y1="429.5" y2="452.5" stroke="#224" stroke-width="10.8" stroke-linecap="round"></line>
  <line x1="1071" x2="1094" y1="452.5" y2="429.5" stroke="#224" stroke-width="10.8" stroke-linecap="round"></line>
  <line x1="1071" x2="1094" y1="452.5" y2="429.5" stroke="#f97" stroke-width="3.6" stroke-linecap="round"></line>
  <line x1="1071" x2="1094" y1="429.5" y2="452.5" stroke="#f97" stroke-width="3.6" stroke-linecap="round"></line>
  <line x1="985" x2="1008" y1="472.5" y2="495.5" stroke="#224" stroke-width="10.8" stroke-linecap="round"></line>
  <line x1="985" x2="1008" y1="495.5" y2="472.5" stroke="#224" stroke-width="10.8" stroke-linecap="round"></line>
  <line x1="985" x2="1008" y1="495.5" y2="472.5" stroke="#f97" stroke-width="3.6" stroke-linecap="round"></line>
  <line x1="985" x2="1008" y1="472.5" y2="495.5" stroke="#f97" stroke-width="3.6" stroke-linecap="round"></line>
  <path stroke-linecap="round" fill="none" d="M 1039.5,484 m -12,0 a 12,12 0 1,0 24,0 a 12,12 0 1,0 -24,0" stroke="#224" stroke-width="10.8"></path>
  <path stroke-linecap="round" fill="none" d="M 1039.5,484 m -12,0 a 12,12 0 1,0 24,0 a 12,12 0 1,0 -24,0" stroke="#7df" stroke-width="3.6"></path>
  <line x1="1071" x2="1094" y1="472.5" y2="495.5" stroke="#224" stroke-width="10.8" stroke-linecap="round"></line>
  <line x1="1071" x2="1094" y1="495.5" y2="472.5" stroke="#224" stroke-width="10.8" stroke-linecap="round"></line>
  <line x1="1071" x2="1094" y1="495.5" y2="472.5" stroke="#f97" stroke-width="3.6" stroke-linecap="round"></line>
  <line x1="1071" x2="1094" y1="472.5" y2="495.5" stroke="#f97" stroke-width="3.6" stroke-linecap="round"></line>
  <rect fill="transparent" height="132" width="132" stroke-linecap="round" stroke-linejoin="round" stroke-width="3" stroke-dasharray="9 15" stroke-dashoffset="4.5" x="973.5" y="375" stroke="#77f"></rect>
</svg>