<svg width="33" height="33" viewBox="0 0 33 33" fill="none" xmlns="http://www.w3.org/2000/svg">
<mask id="path-1-outside-1_142_2" maskUnits="userSpaceOnUse" x="0.5" y="0.5" width="32" height="32" fill="black">
<rect fill="white" x="0.5" y="0.5" width="32" height="32"/>
<path fill-rule="evenodd" clip-rule="evenodd" d="M29.0607 6.06066C29.6464 5.47487 29.6464 4.52513 29.0607 3.93934C28.4749 3.35355 27.5251 3.35355 26.9393 3.93934L16.5 14.3787L6.06066 3.93934C5.47487 3.35355 4.52513 3.35355 3.93934 3.93934C3.35355 4.52513 3.35355 5.47487 3.93934 6.06066L14.3787 16.5L3.93934 26.9393C3.35355 27.5251 3.35355 28.4749 3.93934 29.0607C4.52513 29.6464 5.47487 29.6464 6.06066 29.0607L16.5 18.6213L26.9393 29.0607C27.5251 29.6464 28.4749 29.6464 29.0607 29.0607C29.6464 28.4749 29.6464 27.5251 29.0607 26.9393L18.6213 16.5L29.0607 6.06066Z"/>
</mask>
<path fill-rule="evenodd" clip-rule="evenodd" d="M29.0607 6.06066C29.6464 5.47487 29.6464 4.52513 29.0607 3.93934C28.4749 3.35355 27.5251 3.35355 26.9393 3.93934L16.5 14.3787L6.06066 3.93934C5.47487 3.35355 4.52513 3.35355 3.93934 3.93934C3.35355 4.52513 3.35355 5.47487 3.93934 6.06066L14.3787 16.5L3.93934 26.9393C3.35355 27.5251 3.35355 28.4749 3.93934 29.0607C4.52513 29.6464 5.47487 29.6464 6.06066 29.0607L16.5 18.6213L26.9393 29.0607C27.5251 29.6464 28.4749 29.6464 29.0607 29.0607C29.6464 28.4749 29.6464 27.5251 29.0607 26.9393L18.6213 16.5L29.0607 6.06066Z" fill="#FF9977"/>
<path d="M29.0607 3.93934L26.9393 6.06066L26.9393 6.06066L29.0607 3.93934ZM29.0607 6.06066L26.9393 3.93934L26.9393 3.93934L29.0607 6.06066ZM26.9393 3.93934L29.0607 6.06066L29.0607 6.06066L26.9393 3.93934ZM16.5 14.3787L14.3787 16.5L16.5 18.6213L18.6213 16.5L16.5 14.3787ZM6.06066 3.93934L3.93934 6.06066L3.93934 6.06066L6.06066 3.93934ZM3.93934 3.93934L6.06066 6.06066L6.06066 6.06066L3.93934 3.93934ZM3.93934 6.06066L6.06066 3.93934L6.06066 3.93934L3.93934 6.06066ZM14.3787 16.5L16.5 18.6213L18.6213 16.5L16.5 14.3787L14.3787 16.5ZM3.93934 26.9393L6.06066 29.0607L6.06066 29.0607L3.93934 26.9393ZM3.93934 29.0607L6.06066 26.9393L6.06066 26.9393L3.93934 29.0607ZM6.06066 29.0607L3.93934 26.9393L3.93934 26.9393L6.06066 29.0607ZM16.5 18.6213L18.6213 16.5L16.5 14.3787L14.3787 16.5L16.5 18.6213ZM26.9393 29.0607L29.0607 26.9393L29.0607 26.9393L26.9393 29.0607ZM29.0607 29.0607L26.9393 26.9393L26.9393 26.9393L29.0607 29.0607ZM29.0607 26.9393L26.9393 29.0607L26.9393 29.0607L29.0607 26.9393ZM18.6213 16.5L16.5 14.3787L14.3787 16.5L16.5 18.6213L18.6213 16.5ZM26.9393 6.06066C26.3536 5.47487 26.3536 4.52513 26.9393 3.93934L31.182 8.18198C32.9393 6.42462 32.9393 3.57538 31.182 1.81802L26.9393 6.06066ZM29.0607 6.06066C28.4749 6.64645 27.5251 6.64645 26.9393 6.06066L31.182 1.81802C29.4246 0.0606593 26.5754 0.0606593 24.818 1.81802L29.0607 6.06066ZM18.6213 16.5L29.0607 6.06066L24.818 1.81802L14.3787 12.2574L18.6213 16.5ZM3.93934 6.06066L14.3787 16.5L18.6213 12.2574L8.18198 1.81802L3.93934 6.06066ZM6.06066 6.06066C5.47487 6.64645 4.52513 6.64645 3.93934 6.06066L8.18198 1.81802C6.42462 0.0606601 3.57538 0.0606601 1.81802 1.81802L6.06066 6.06066ZM6.06066 3.93934C6.64645 4.52513 6.64645 5.47487 6.06066 6.06066L1.81802 1.81802C0.0606601 3.57538 0.0606601 6.42462 1.81802 8.18198L6.06066 3.93934ZM16.5 14.3787L6.06066 3.93934L1.81802 8.18198L12.2574 18.6213L16.5 14.3787ZM6.06066 29.0607L16.5 18.6213L12.2574 14.3787L1.81802 24.818L6.06066 29.0607ZM6.06066 26.9393C6.64645 27.5251 6.64645 28.4749 6.06066 29.0607L1.81802 24.818C0.0606593 26.5754 0.0606593 29.4246 1.81802 31.182L6.06066 26.9393ZM3.93934 26.9393C4.52513 26.3536 5.47487 26.3536 6.06066 26.9393L1.81802 31.182C3.57538 32.9393 6.42462 32.9393 8.18198 31.182L3.93934 26.9393ZM14.3787 16.5L3.93934 26.9393L8.18198 31.182L18.6213 20.7426L14.3787 16.5ZM29.0607 26.9393L18.6213 16.5L14.3787 20.7426L24.818 31.182L29.0607 26.9393ZM26.9393 26.9393C27.5251 26.3536 28.4749 26.3536 29.0607 26.9393L24.818 31.182C26.5754 32.9393 29.4246 32.9393 31.182 31.182L26.9393 26.9393ZM26.9393 29.0607C26.3536 28.4749 26.3536 27.5251 26.9393 26.9393L31.182 31.182C32.9393 29.4246 32.9393 26.5754 31.182 24.818L26.9393 29.0607ZM16.5 18.6213L26.9393 29.0607L31.182 24.818L20.7426 14.3787L16.5 18.6213ZM26.9393 3.93934L16.5 14.3787L20.7426 18.6213L31.182 8.18198L26.9393 3.93934Z" fill="#222244" mask="url(#path-1-outside-1_142_2)"/>
</svg>
