<svg width="140" height="140" viewBox="0 0 140 140" fill="none" xmlns="http://www.w3.org/2000/svg">
<rect width="140" height="140" fill="#1E1E1E"/>
<rect width="140" height="140" fill="white"/>
<mask id="path-2-outside-1_17_377" maskUnits="userSpaceOnUse" x="11" y="11" width="33" height="33" fill="black">
<rect fill="white" x="11" y="11" width="33" height="33"/>
<path fill-rule="evenodd" clip-rule="evenodd" d="M14.4391 37.4381C13.8536 38.0242 13.8536 38.9745 14.4391 39.5605C15.0246 40.1466 15.9739 40.1466 16.5594 39.5605L27.0013 29.108L37.4432 39.5605C38.0287 40.1466 38.978 40.1466 39.5635 39.5605C40.1489 38.9745 40.1489 38.0242 39.5635 37.4381L29.1215 26.9856L39.5345 16.562C40.12 15.9759 40.12 15.0256 39.5345 14.4396C38.949 13.8535 37.9998 13.8535 37.4143 14.4396L27.0013 24.8632L16.5883 14.4396C16.0028 13.8535 15.0535 13.8535 14.4681 14.4396C13.8826 15.0257 13.8826 15.9759 14.4681 16.562L24.881 26.9856L14.4391 37.4381Z"/>
</mask>
<path fill-rule="evenodd" clip-rule="evenodd" d="M14.4391 37.4381C13.8536 38.0242 13.8536 38.9745 14.4391 39.5605C15.0246 40.1466 15.9739 40.1466 16.5594 39.5605L27.0013 29.108L37.4432 39.5605C38.0287 40.1466 38.978 40.1466 39.5635 39.5605C40.1489 38.9745 40.1489 38.0242 39.5635 37.4381L29.1215 26.9856L39.5345 16.562C40.12 15.9759 40.12 15.0256 39.5345 14.4396C38.949 13.8535 37.9998 13.8535 37.4143 14.4396L27.0013 24.8632L16.5883 14.4396C16.0028 13.8535 15.0535 13.8535 14.4681 14.4396C13.8826 15.0257 13.8826 15.9759 14.4681 16.562L24.881 26.9856L14.4391 37.4381Z" fill="#FF9977"/>
<path d="M14.4391 39.5605L12.3167 41.6808L12.3167 41.6808L14.4391 39.5605ZM14.4391 37.4381L16.5615 39.5584H16.5615L14.4391 37.4381ZM16.5594 39.5605L18.6818 41.6808H18.6818L16.5594 39.5605ZM27.0013 29.108L29.1237 26.9877L27.0013 24.8632L24.8789 26.9877L27.0013 29.108ZM37.4432 39.5605L39.5656 37.4403H39.5656L37.4432 39.5605ZM39.5635 37.4381L41.6859 35.3179L41.6859 35.3179L39.5635 37.4381ZM29.1215 26.9856L26.9991 24.8653L24.881 26.9856L26.9991 29.1058L29.1215 26.9856ZM39.5345 16.562L41.6569 18.6822L39.5345 16.562ZM39.5345 14.4396L41.6569 12.3193L39.5345 14.4396ZM37.4143 14.4396L39.5367 16.5598L37.4143 14.4396ZM27.0013 24.8632L24.8789 26.9834L27.0013 29.108L29.1237 26.9834L27.0013 24.8632ZM16.5883 14.4396L18.7107 12.3193V12.3193L16.5883 14.4396ZM14.4681 14.4396L16.5905 16.5598L14.4681 14.4396ZM14.4681 16.562L16.5905 14.4417L16.5905 14.4417L14.4681 16.562ZM24.881 26.9856L27.0034 29.1058L29.1215 26.9856L27.0034 24.8653L24.881 26.9856ZM16.5615 37.4403C17.1462 38.0255 17.1462 38.9731 16.5615 39.5584L12.3167 35.3179C10.5611 37.0753 10.5611 39.9234 12.3167 41.6808L16.5615 37.4403ZM14.437 37.4403C15.0233 36.8534 15.9752 36.8534 16.5615 37.4403L12.3167 41.6808C14.074 43.4399 16.9244 43.4399 18.6818 41.6808L14.437 37.4403ZM24.8789 26.9877L14.437 37.4403L18.6818 41.6808L29.1237 31.2282L24.8789 26.9877ZM39.5656 37.4403L29.1237 26.9877L24.8789 31.2282L35.3208 41.6808L39.5656 37.4403ZM37.4411 37.4403C38.0274 36.8534 38.9793 36.8534 39.5656 37.4403L35.3208 41.6808C37.0781 43.4399 39.9286 43.4399 41.6859 41.6808L37.4411 37.4403ZM37.4411 39.5584C36.8564 38.9731 36.8564 38.0255 37.4411 37.4403L41.6859 41.6808C43.4415 39.9234 43.4415 37.0753 41.6859 35.3179L37.4411 39.5584ZM26.9991 29.1058L37.4411 39.5584L41.6859 35.3179L31.2439 24.8653L26.9991 29.1058ZM37.4121 14.4417L26.9991 24.8653L31.2439 29.1058L41.6569 18.6822L37.4121 14.4417ZM37.4121 16.5598C36.8275 15.9746 36.8275 15.027 37.4121 14.4417L41.6569 18.6822C43.4125 16.9248 43.4125 14.0767 41.6569 12.3193L37.4121 16.5598ZM39.5367 16.5598C38.9504 17.1467 37.9985 17.1467 37.4121 16.5598L41.6569 12.3193C39.8996 10.5602 37.0492 10.5602 35.2919 12.3193L39.5367 16.5598ZM29.1237 26.9834L39.5367 16.5598L35.2919 12.3193L24.8789 22.7429L29.1237 26.9834ZM14.4659 16.5598L24.8789 26.9834L29.1237 22.7429L18.7107 12.3193L14.4659 16.5598ZM16.5905 16.5598C16.0041 17.1467 15.0522 17.1467 14.4659 16.5598L18.7107 12.3193C16.9534 10.5602 14.103 10.5602 12.3457 12.3193L16.5905 16.5598ZM16.5905 14.4417C17.1751 15.027 17.1751 15.9746 16.5905 16.5598L12.3457 12.3193C10.59 14.0767 10.59 16.9248 12.3457 18.6822L16.5905 14.4417ZM27.0034 24.8653L16.5905 14.4417L12.3457 18.6822L22.7586 29.1058L27.0034 24.8653ZM16.5615 39.5584L27.0034 29.1058L22.7586 24.8653L12.3167 35.3179L16.5615 39.5584Z" fill="#222244" mask="url(#path-2-outside-1_17_377)"/>
<mask id="path-4-outside-2_17_377" maskUnits="userSpaceOnUse" x="54" y="54" width="32" height="32" fill="black">
<rect fill="white" x="54" y="54" width="32" height="32"/>
<path fill-rule="evenodd" clip-rule="evenodd" d="M70 83C77.1797 83 83 77.1797 83 70C83 62.8203 77.1797 57 70 57C62.8203 57 57 62.8203 57 70C57 77.1797 62.8203 83 70 83ZM70 80C75.5228 80 80 75.5228 80 70C80 64.4772 75.5228 60 70 60C64.4772 60 60 64.4772 60 70C60 75.5228 64.4772 80 70 80Z"/>
</mask>
<path fill-rule="evenodd" clip-rule="evenodd" d="M70 83C77.1797 83 83 77.1797 83 70C83 62.8203 77.1797 57 70 57C62.8203 57 57 62.8203 57 70C57 77.1797 62.8203 83 70 83ZM70 80C75.5228 80 80 75.5228 80 70C80 64.4772 75.5228 60 70 60C64.4772 60 60 64.4772 60 70C60 75.5228 64.4772 80 70 80Z" fill="#77DDFF"/>
<path d="M80 70C80 75.5228 75.5228 80 70 80V86C78.8366 86 86 78.8366 86 70H80ZM70 60C75.5228 60 80 64.4772 80 70H86C86 61.1634 78.8366 54 70 54V60ZM60 70C60 64.4772 64.4772 60 70 60V54C61.1634 54 54 61.1634 54 70H60ZM70 80C64.4772 80 60 75.5228 60 70H54C54 78.8366 61.1634 86 70 86V80ZM77 70C77 73.866 73.866 77 70 77V83C77.1797 83 83 77.1797 83 70H77ZM70 63C73.866 63 77 66.134 77 70H83C83 62.8203 77.1797 57 70 57V63ZM63 70C63 66.134 66.134 63 70 63V57C62.8203 57 57 62.8203 57 70H63ZM70 77C66.134 77 63 73.866 63 70H57C57 77.1797 62.8203 83 70 83V77Z" fill="#222244" mask="url(#path-4-outside-2_17_377)"/>
<path fill-rule="evenodd" clip-rule="evenodd" d="M50 8.5C50 7.67157 49.3284 7 48.5 7C47.6716 7 47 7.67157 47 8.5V47H8.5C7.67157 47 7 47.6716 7 48.5C7 49.3284 7.67157 50 8.5 50H47V90H8.5C7.67157 90 7 90.6716 7 91.5C7 92.3284 7.67157 93 8.5 93H47V131.5C47 132.328 47.6716 133 48.5 133C49.3284 133 50 132.328 50 131.5V93H90V131.5C90 132.328 90.6716 133 91.5 133C92.3284 133 93 132.328 93 131.5V93H131.5C132.328 93 133 92.3284 133 91.5C133 90.6716 132.328 90 131.5 90H93V50H131.5C132.328 50 133 49.3284 133 48.5C133 47.6716 132.328 47 131.5 47H93V8.5C93 7.67157 92.3284 7 91.5 7C90.6716 7 90 7.67157 90 8.5V47H50V8.5ZM50 50V90H90V50H50Z" fill="#222244"/>
</svg>
