<svg width="140" height="140" viewBox="0 0 140 140" fill="none" xmlns="http://www.w3.org/2000/svg">
<rect width="140" height="140" fill="#1E1E1E"/>
<rect width="140" height="140" fill="white"/>
<mask id="path-2-inside-1_17_450" fill="white">
<path fill-rule="evenodd" clip-rule="evenodd" d="M17 7C11.4772 7 7 11.4772 7 17V123C7 128.523 11.4772 133 17 133H123C128.523 133 133 128.523 133 123V17C133 11.4772 128.523 7 123 7H17ZM121 32C121 39.1797 115.18 45 108 45C100.82 45 95 39.1797 95 32C95 24.8203 100.82 19 108 19C115.18 19 121 24.8203 121 32ZM32 83C39.1797 83 45 77.1797 45 70C45 62.8203 39.1797 57 32 57C24.8203 57 19 62.8203 19 70C19 77.1797 24.8203 83 32 83ZM108 83C115.18 83 121 77.1797 121 70C121 62.8203 115.18 57 108 57C100.82 57 95 62.8203 95 70C95 77.1797 100.82 83 108 83ZM70 45C77.1797 45 83 39.1797 83 32C83 24.8203 77.1797 19 70 19C62.8203 19 57 24.8203 57 32C57 39.1797 62.8203 45 70 45ZM45 32C45 39.1797 39.1797 45 32 45C24.8203 45 19 39.1797 19 32C19 24.8203 24.8203 19 32 19C39.1797 19 45 24.8203 45 32Z"/>
</mask>
<path fill-rule="evenodd" clip-rule="evenodd" d="M17 7C11.4772 7 7 11.4772 7 17V123C7 128.523 11.4772 133 17 133H123C128.523 133 133 128.523 133 123V17C133 11.4772 128.523 7 123 7H17ZM121 32C121 39.1797 115.18 45 108 45C100.82 45 95 39.1797 95 32C95 24.8203 100.82 19 108 19C115.18 19 121 24.8203 121 32ZM32 83C39.1797 83 45 77.1797 45 70C45 62.8203 39.1797 57 32 57C24.8203 57 19 62.8203 19 70C19 77.1797 24.8203 83 32 83ZM108 83C115.18 83 121 77.1797 121 70C121 62.8203 115.18 57 108 57C100.82 57 95 62.8203 95 70C95 77.1797 100.82 83 108 83ZM70 45C77.1797 45 83 39.1797 83 32C83 24.8203 77.1797 19 70 19C62.8203 19 57 24.8203 57 32C57 39.1797 62.8203 45 70 45ZM45 32C45 39.1797 39.1797 45 32 45C24.8203 45 19 39.1797 19 32C19 24.8203 24.8203 19 32 19C39.1797 19 45 24.8203 45 32Z" fill="#7777FF"/>
<path d="M10 17C10 13.134 13.134 10 17 10V4C9.8203 4 4 9.8203 4 17H10ZM10 123V17H4V123H10ZM17 130C13.134 130 10 126.866 10 123H4C4 130.18 9.8203 136 17 136V130ZM123 130H17V136H123V130ZM130 123C130 126.866 126.866 130 123 130V136C130.18 136 136 130.18 136 123H130ZM130 17V123H136V17H130ZM123 10C126.866 10 130 13.134 130 17H136C136 9.8203 130.18 4 123 4V10ZM17 10H123V4H17V10ZM108 48C116.837 48 124 40.8366 124 32H118C118 37.5228 113.523 42 108 42V48ZM92 32C92 40.8366 99.1634 48 108 48V42C102.477 42 98 37.5228 98 32H92ZM108 16C99.1634 16 92 23.1634 92 32H98C98 26.4772 102.477 22 108 22V16ZM124 32C124 23.1634 116.837 16 108 16V22C113.523 22 118 26.4772 118 32H124ZM42 70C42 75.5229 37.5228 80 32 80V86C40.8366 86 48 78.8366 48 70H42ZM32 60C37.5228 60 42 64.4771 42 70H48C48 61.1634 40.8366 54 32 54V60ZM22 70C22 64.4771 26.4772 60 32 60V54C23.1634 54 16 61.1634 16 70H22ZM32 80C26.4772 80 22 75.5229 22 70H16C16 78.8366 23.1634 86 32 86V80ZM118 70C118 75.5229 113.523 80 108 80V86C116.837 86 124 78.8366 124 70H118ZM108 60C113.523 60 118 64.4771 118 70H124C124 61.1634 116.837 54 108 54V60ZM98 70C98 64.4771 102.477 60 108 60V54C99.1634 54 92 61.1634 92 70H98ZM108 80C102.477 80 98 75.5229 98 70H92C92 78.8366 99.1634 86 108 86V80ZM80 32C80 37.5228 75.5229 42 70 42V48C78.8366 48 86 40.8366 86 32H80ZM70 22C75.5229 22 80 26.4772 80 32H86C86 23.1634 78.8366 16 70 16V22ZM60 32C60 26.4772 64.4771 22 70 22V16C61.1634 16 54 23.1634 54 32H60ZM70 42C64.4771 42 60 37.5228 60 32H54C54 40.8366 61.1634 48 70 48V42ZM32 48C40.8366 48 48 40.8366 48 32H42C42 37.5228 37.5228 42 32 42V48ZM16 32C16 40.8366 23.1634 48 32 48V42C26.4772 42 22 37.5228 22 32H16ZM32 16C23.1634 16 16 23.1634 16 32H22C22 26.4772 26.4772 22 32 22V16ZM48 32C48 23.1634 40.8366 16 32 16V22C37.5228 22 42 26.4772 42 32H48Z" fill="#222244" mask="url(#path-2-inside-1_17_450)"/>
<circle cx="70" cy="108" r="14.5" fill="#FFDD77" stroke="#222244" stroke-width="3"/>
<circle cx="70" cy="70" r="14.5" fill="#FF7777" stroke="#222244" stroke-width="3"/>
<circle cx="108" cy="108" r="14.5" fill="#FFDD77" stroke="#222244" stroke-width="3"/>
<circle cx="32" cy="108" r="14.5" fill="#FF7777" stroke="#222244" stroke-width="3"/>
</svg>
