<svg width="140" height="140" viewBox="0 0 140 140" fill="none" xmlns="http://www.w3.org/2000/svg">
<rect width="140" height="140" fill="#1E1E1E"/>
<rect width="140" height="140" fill="white"/>
<path fill-rule="evenodd" clip-rule="evenodd" d="M58.7438 16.5022C55.154 22.72 57.2844 30.6707 63.5022 34.2605C69.72 37.8504 77.6707 35.72 81.2605 29.5022C84.8504 23.2844 82.72 15.3337 76.5022 11.7438C70.2844 8.15399 62.3337 10.2844 58.7438 16.5022ZM61.3419 18.0022C58.5805 22.7851 60.2192 28.901 65.0022 31.6624C69.7851 34.4239 75.901 32.7851 78.6624 28.0022C81.4239 23.2192 79.7851 17.1033 75.0022 14.3419C70.2192 11.5805 64.1033 13.2192 61.3419 18.0022ZM88.7011 53.2682L92.1951 40.2282C92.4095 39.428 91.9347 38.6055 91.1345 38.3911C90.3343 38.1767 89.5118 38.6516 89.2973 39.4518L86.7406 48.9938L80.0512 37.4076C79.637 36.6901 78.7196 36.4443 78.0022 36.8585C77.2847 37.2727 77.0389 38.1901 77.4531 38.9076L84.1425 50.4938L74.6004 47.9371C73.8002 47.7226 72.9777 48.1975 72.7633 48.9977C72.5489 49.7979 73.0238 50.6204 73.824 50.8348L86.8639 54.3289C87.6641 54.5433 88.4866 54.0684 88.7011 53.2682ZM84.7438 74.5354C88.3337 80.7533 96.2844 82.8836 102.502 79.2938C108.72 75.7039 110.85 67.7533 107.261 61.5354C103.671 55.3176 95.72 53.1873 89.5022 56.7771C83.2844 60.367 81.154 68.3176 84.7438 74.5354ZM87.3419 73.0354C90.1033 77.8184 96.2192 79.4571 101.002 76.6957C105.785 73.9343 107.424 67.8184 104.662 63.0354C101.901 58.2525 95.7851 56.6138 91.0022 59.3752C86.2192 62.1366 84.5805 68.2525 87.3419 73.0354ZM110.744 119.569C114.334 125.787 122.284 127.917 128.502 124.327C134.72 120.737 136.85 112.787 133.26 106.569C129.671 100.351 121.72 98.2206 115.502 101.81C109.284 105.4 107.154 113.351 110.744 119.569ZM113.342 118.069C116.103 122.852 122.219 124.49 127.002 121.729C131.785 118.968 133.424 112.852 130.662 108.069C127.901 103.286 121.785 101.647 117.002 104.409C112.219 107.17 110.58 113.286 113.342 118.069ZM118.195 85.2616L114.701 98.3016C114.487 99.1018 113.664 99.5766 112.864 99.3622L99.8239 95.8682C99.0238 95.6537 98.5489 94.8312 98.7633 94.031C98.9777 93.2308 99.8002 92.756 100.6 92.9704L110.142 95.5272L103.453 83.9409C103.039 83.2234 103.285 82.3061 104.002 81.8919C104.72 81.4776 105.637 81.7234 106.051 82.4409L112.741 94.0272L115.297 84.4851C115.512 83.6849 116.334 83.21 117.134 83.4244C117.935 83.6388 118.41 84.4614 118.195 85.2616ZM50.5022 79.2938C44.2844 82.8836 36.3337 80.7532 32.7438 74.5354C29.154 68.3176 31.2844 60.367 37.5022 56.7771C43.72 53.1873 51.6707 55.3176 55.2605 61.5354C58.8504 67.7532 56.72 75.7039 50.5022 79.2938ZM49.0022 76.6957C44.2192 79.4571 38.1033 77.8184 35.3419 73.0354C32.5805 68.2525 34.2192 62.1366 39.0022 59.3752C43.7851 56.6138 49.901 58.2525 52.6624 63.0354C55.4239 67.8184 53.7851 73.9343 49.0022 76.6957ZM58.7438 119.569C62.3337 125.787 70.2844 127.917 76.5022 124.327C82.72 120.737 84.8504 112.787 81.2605 106.569C77.6707 100.351 69.72 98.2206 63.5022 101.81C57.2844 105.4 55.154 113.351 58.7438 119.569ZM61.3419 118.069C64.1033 122.852 70.2193 124.49 75.0022 121.729C79.7851 118.968 81.4239 112.852 78.6624 108.069C75.901 103.286 69.7851 101.647 65.0022 104.409C60.2192 107.17 58.5805 113.286 61.3419 118.069ZM62.7011 98.3015L66.1951 85.2615C66.4095 84.4613 65.9347 83.6388 65.1345 83.4244C64.3343 83.21 63.5118 83.6849 63.2973 84.4851L60.7406 94.0272L54.0512 82.4409C53.637 81.7234 52.7196 81.4776 52.0022 81.8918C51.2847 82.3061 51.0389 83.2234 51.4531 83.9409L58.1425 95.5272L48.6004 92.9704C47.8002 92.756 46.9777 93.2308 46.7633 94.031C46.5489 94.8312 47.0238 95.6537 47.824 95.8681L60.8639 99.3622C61.6642 99.5766 62.4867 99.1017 62.7011 98.3015ZM11.5022 124.327C5.28437 120.737 3.15399 112.787 6.74384 106.569C10.3337 100.351 18.2844 98.2206 24.5022 101.81C30.72 105.4 32.8504 113.351 29.2605 119.569C25.6707 125.787 17.72 127.917 11.5022 124.327ZM13.0022 121.729C8.21924 118.968 6.58049 112.852 9.34192 108.069C12.1033 103.286 18.2192 101.647 23.0022 104.409C27.7851 107.17 29.4239 113.286 26.6624 118.069C23.901 122.852 17.7851 124.49 13.0022 121.729ZM66.1804 50.8349L53.1404 54.3289C52.3402 54.5433 51.5177 54.0685 51.3033 53.2683L47.8092 40.2283C47.5948 39.4281 48.0697 38.6056 48.8699 38.3912C49.6701 38.1767 50.4926 38.6516 50.707 39.4518L53.2638 48.9939L59.9531 37.4076C60.3674 36.6902 61.2847 36.4444 62.0022 36.8586C62.7196 37.2728 62.9654 38.1902 62.5512 38.9076L55.8619 50.4939L65.4039 47.9371C66.2041 47.7227 67.0266 48.1976 67.2411 48.9978C67.4555 49.798 66.9806 50.6205 66.1804 50.8349ZM27.1404 99.3623L40.1804 95.8682C40.9806 95.6538 41.4555 94.8313 41.2411 94.0311C41.0266 93.2309 40.2041 92.756 39.4039 92.9704L29.8619 95.5272L36.5512 83.9409C36.9654 83.2235 36.7196 82.3061 36.0022 81.8919C35.2847 81.4777 34.3673 81.7235 33.9531 82.4409L27.2638 94.0272L24.707 84.4851C24.4926 83.6849 23.6701 83.2101 22.8699 83.4245C22.0697 83.6389 21.5948 84.4614 21.8092 85.2616L25.3033 98.3016C25.5177 99.1018 26.3402 99.5767 27.1404 99.3623Z" fill="#222244"/>
</svg>
