<svg width="32" height="32" viewBox="0 0 32 32" fill="none" xmlns="http://www.w3.org/2000/svg">
<path fill-rule="evenodd" clip-rule="evenodd" d="M22.6278 28.2847C24.1899 29.8468 26.7213 29.8455 28.2818 28.2818C29.8423 26.7181 29.841 24.1842 28.2789 22.6221L21.3846 15.7277L28.2847 8.82758C29.8468 7.26548 29.8455 4.73412 28.2818 3.17361C26.7181 1.6131 24.1842 1.61439 22.6221 3.17649L15.7277 10.0709L8.82758 3.17073C7.26548 1.60863 4.73411 1.60992 3.17361 3.17361C1.6131 4.7373 1.61439 7.27124 3.17649 8.83334L10.0709 15.7277L3.17073 22.6278C1.60863 24.1899 1.60992 26.7213 3.17361 28.2818C4.7373 29.8423 7.27124 29.841 8.83334 28.2789L15.7277 21.3846L22.6278 28.2847Z" fill="#FF9977"/>
<path d="M28.2818 28.2818L26.8661 26.869L26.8661 26.869L28.2818 28.2818ZM28.2789 22.6221L29.6931 21.2079H29.6931L28.2789 22.6221ZM21.3846 15.7277L19.9703 14.3135L18.5561 15.7277L19.9703 17.1419L21.3846 15.7277ZM28.2847 8.82758L29.6989 10.2418L29.6989 10.2418L28.2847 8.82758ZM28.2818 3.17361L26.869 4.58926V4.58926L28.2818 3.17361ZM22.6221 3.17649L24.0363 4.59071V4.59071L22.6221 3.17649ZM15.7277 10.0709L14.3135 11.4851L15.7277 12.8993L17.1419 11.4851L15.7277 10.0709ZM8.82758 3.17073L7.41337 4.58494V4.58494L8.82758 3.17073ZM3.17361 3.17361L1.75796 1.76084L3.17361 3.17361ZM3.17649 8.83334L4.5907 7.41913L3.17649 8.83334ZM10.0709 15.7277L11.4851 17.1419L12.8993 15.7277L11.4851 14.3135L10.0709 15.7277ZM3.17073 22.6278L1.75652 21.2136H1.75652L3.17073 22.6278ZM3.17361 28.2818L1.76084 29.6975H1.76084L3.17361 28.2818ZM8.83334 28.2789L10.2476 29.6931V29.6931L8.83334 28.2789ZM15.7277 21.3846L17.1419 19.9703L15.7277 18.5561L14.3135 19.9703L15.7277 21.3846ZM26.8661 26.869C26.0865 27.6503 24.8225 27.651 24.042 26.8705L21.2136 29.6989C23.5573 32.0426 27.3561 32.0407 29.6975 29.6946L26.8661 26.869ZM26.8647 24.0363C27.6463 24.8179 27.647 26.0866 26.8661 26.869L29.6975 29.6946C32.0377 27.3496 32.0357 23.5504 29.6931 21.2079L26.8647 24.0363ZM19.9703 17.1419L26.8647 24.0363L29.6931 21.2079L22.7988 14.3135L19.9703 17.1419ZM26.8705 7.41337L19.9703 14.3135L22.7988 17.1419L29.6989 10.2418L26.8705 7.41337ZM26.869 4.58926C27.6503 5.36895 27.651 6.63288 26.8705 7.41337L29.6989 10.2418C32.0426 7.89809 32.0407 4.09928 29.6946 1.75796L26.869 4.58926ZM24.0363 4.59071C24.8179 3.80909 26.0866 3.80845 26.869 4.58926L29.6946 1.75796C27.3496 -0.582241 23.5504 -0.580307 21.2079 1.76228L24.0363 4.59071ZM17.1419 11.4851L24.0363 4.59071L21.2079 1.76228L14.3135 8.65664L17.1419 11.4851ZM7.41337 4.58494L14.3135 11.4851L17.1419 8.65664L10.2418 1.75652L7.41337 4.58494ZM4.58926 4.58638C5.36895 3.8051 6.63288 3.80446 7.41337 4.58494L10.2418 1.75652C7.89808 -0.587193 4.09927 -0.585257 1.75796 1.76084L4.58926 4.58638ZM4.5907 7.41913C3.80909 6.63752 3.80845 5.36879 4.58926 4.58638L1.75796 1.76084C-0.582241 4.1058 -0.580308 7.90497 1.76228 10.2476L4.5907 7.41913ZM11.4851 14.3135L4.5907 7.41913L1.76228 10.2476L8.65664 17.1419L11.4851 14.3135ZM4.58494 24.042L11.4851 17.1419L8.65664 14.3135L1.75652 21.2136L4.58494 24.042ZM4.58638 26.8662C3.8051 26.0865 3.80446 24.8225 4.58494 24.042L1.75652 21.2136C-0.587192 23.5573 -0.585257 27.3561 1.76084 29.6975L4.58638 26.8662ZM7.41913 26.8647C6.63752 27.6463 5.36879 27.647 4.58638 26.8662L1.76084 29.6975C4.1058 32.0377 7.90497 32.0357 10.2476 29.6931L7.41913 26.8647ZM14.3135 19.9703L7.41913 26.8647L10.2476 29.6931L17.1419 22.7988L14.3135 19.9703ZM24.042 26.8705L17.1419 19.9703L14.3135 22.7988L21.2136 29.6989L24.042 26.8705Z" fill="#222244"/>
</svg>
